<svg xmlns="http://www.w3.org/2000/svg" xmlns:xlink="http://www.w3.org/1999/xlink" viewBox="0 0 162.51 201.55"><defs><style>.cls-1,.cls-5{fill:none;}.cls-1,.cls-4,.cls-5,.cls-6{stroke:#000;stroke-miterlimit:10;}.cls-2{opacity:0.9;}.cls-3{clip-path:url(#clip-path);}.cls-4{fill:#2910a0;}.cls-5{opacity:0.8;}.cls-6{fill:#2815af;}</style><clipPath id="clip-path"><polygon class="cls-1" points="162.01 150.59 162.01 50.59 81.54 0.59 1.06 50.59 1.06 150.59 81.54 200.59 162.01 150.59"/></clipPath></defs><title>blueCrystal</title><g id="Layer_2" data-name="Layer 2"><g id="Layer_1-2" data-name="Layer 1"><g class="cls-2"><g class="cls-3"><polygon class="cls-4" points="162.01 150.59 162.01 50.59 81.54 0.59 1.06 50.59 1.06 150.59 81.54 200.59 162.01 150.59"/><line class="cls-5" x1="1.06" y1="50.64" x2="1.06" y2="150.96"/><line class="cls-5" x1="1.06" y1="50.64" x2="23.6" y2="60.68"/><line class="cls-5" x1="81.54" y1="0.48" x2="1.06" y2="50.64"/><line class="cls-5" x1="81.54" y1="0.7" x2="81.54" y2="23.73"/><line class="cls-5" x1="162.01" y1="50.64" x2="81.54" y2="0.48"/><line class="cls-5" x1="162.01" y1="50.64" x2="139.48" y2="60.68"/><line class="cls-5" x1="162.01" y1="150.96" x2="162.01" y2="50.64"/><polyline class="cls-5" points="81.54 201.12 1.06 150.96 23.6 140.93"/><line class="cls-5" x1="162.01" y1="150.96" x2="81.54" y2="201.12"/><line class="cls-5" x1="139.48" y1="140.93" x2="162.01" y2="150.96"/><line class="cls-5" x1="81.54" y1="177.88" x2="81.54" y2="200.91"/><polygon class="cls-6" points="139.48 60.68 139.48 140.93 81.54 177.56 23.6 140.93 23.6 60.68 81.54 24.05 139.48 60.68"/></g><polygon class="cls-1" points="162.01 150.59 162.01 50.59 81.54 0.59 1.06 50.59 1.06 150.59 81.54 200.59 162.01 150.59"/></g></g></g></svg>