<svg xmlns="http://www.w3.org/2000/svg" xmlns:xlink="http://www.w3.org/1999/xlink" viewBox="0 0 211.67 201.63"><defs><style>.cls-1{fill:none;}.cls-1,.cls-4,.cls-5{stroke:#000;stroke-miterlimit:10;}.cls-2{opacity:0.9;}.cls-3{clip-path:url(#clip-path);}.cls-4{fill:#540389;}.cls-5{fill:#560496;}</style><clipPath id="clip-path"><polygon class="cls-1" points="138.32 0.82 73.34 0.82 20.77 39.02 0.69 100.82 20.77 162.62 73.34 200.82 138.32 200.82 190.9 162.62 210.98 100.82 190.9 39.02 138.32 0.82"/></clipPath></defs><title>purpleCrystal</title><g id="Layer_2" data-name="Layer 2"><g id="Layer_1-2" data-name="Layer 1"><g class="cls-2"><g class="cls-3"><polygon class="cls-4" points="138.32 0.82 73.34 0.82 20.77 39.02 0.69 100.82 20.77 162.62 73.34 200.82 138.32 200.82 190.9 162.62 210.98 100.82 190.9 39.02 138.32 0.82"/><line class="cls-1" x1="138.32" y1="0.82" x2="73.34" y2="0.82"/><polyline class="cls-1" points="190.9 39.02 138.32 0.82 130.42 25.21"/><polyline class="cls-1" points="190.9 162.62 210.98 100.82 185.69 101.08"/><polyline class="cls-1" points="73.34 200.82 138.32 200.82 130.42 176.96"/><polyline class="cls-1" points="20.77 162.62 73.34 200.82 80.78 176.96"/><polyline class="cls-1" points="20.77 39.02 0.69 100.82 25.51 101.08"/><polyline class="cls-1" points="210.98 100.82 190.9 39.02 170.48 53.85"/><polygon class="cls-5" points="185.74 100.82 170.48 147.79 130.52 176.82 81.14 176.82 41.18 147.79 25.92 100.82 41.18 53.85 80.75 25.11 81.14 24.82 130.52 24.82 130.54 24.83 170.48 53.85 185.74 100.82"/><polyline class="cls-1" points="138.33 200.82 190.9 162.63 170.48 147.79"/><polyline class="cls-1" points="0.69 100.82 20.77 162.63 41.18 147.79"/><polyline class="cls-1" points="41.18 53.85 20.77 39.02 73.34 0.82 80.75 25.11 80.78 25.21"/></g><polygon class="cls-1" points="138.32 0.82 73.34 0.82 20.77 39.02 0.69 100.82 20.77 162.62 73.34 200.82 138.32 200.82 190.9 162.62 210.98 100.82 190.9 39.02 138.32 0.82"/></g></g></g></svg>